<?xml version="1.0" encoding="UTF-8"?><svg id="Layer_2" xmlns="http://www.w3.org/2000/svg" xmlns:xlink="http://www.w3.org/1999/xlink" viewBox="0 0 514.31 166.81"><defs><style>.cls-1{fill:url(#linear-gradient);}.cls-2{fill:#22b46d;}.cls-3,.cls-4{fill:#48ade2;}.cls-4{stroke:#fff;stroke-miterlimit:10;stroke-width:.5px;}.cls-5{fill:url(#linear-gradient-2);}</style><linearGradient id="linear-gradient" x1="704.86" y1="82.64" x2="767.11" y2="140.84" gradientTransform="translate(775.53 134.16) rotate(-164.02) scale(1 -1)" gradientUnits="userSpaceOnUse"><stop offset="0" stop-color="#45489d"/><stop offset="1" stop-color="#c46bab"/></linearGradient><linearGradient id="linear-gradient-2" x1="-328.63" y1="128.97" x2="-266.38" y2="187.16" gradientTransform="translate(391.52 23.58) rotate(15.98)" xlink:href="#linear-gradient"/></defs><g id="Final1_copy_2"><g><g><path class="cls-3" d="M156.1,21.88c-2.93-.98-5.32-2.39-7.18-4.25-1.86-1.86-2.78-4.15-2.78-6.88s.98-5.02,2.93-6.97c1.95-1.95,4.35-2.93,7.18-2.93s5.19,.99,7.18,2.96c1.09,1.05,2.07,2.89,2.93,5.51l-6.12,2.37c-.7-1.91-1.25-3.07-1.64-3.46-.66-.64-1.45-.97-2.34-.97s-1.68,.33-2.34,1c-.66,.66-1,1.49-1,2.49s.32,1.83,.97,2.49c.88,.86,2.06,1.63,3.54,2.31,3.2,1.04,5.94,2.69,8.2,4.95,2.52,2.54,3.78,5.6,3.78,9.17s-1.27,6.65-3.82,9.21-5.66,3.85-9.33,3.85-6.79-1.31-9.35-3.93c-2.07-2.01-3.38-4.95-3.93-8.82l6.5-2.34c.37,3.4,1.11,5.64,2.23,6.74,1.27,1.27,2.78,1.9,4.54,1.9s3.31-.64,4.6-1.92,1.93-2.85,1.93-4.7-.63-3.39-1.9-4.66c-1.35-1.35-2.94-2.39-4.78-3.13Z"/><path class="cls-3" d="M196.74,42.3l-3.11-8.64h-9.38l-3.13,8.64h-7.12L188.97,1.26l14.85,41.04h-7.09Zm-5.48-15.06l-2.34-6.39-2.31,6.39h4.66Z"/><path class="cls-3" d="M209.54,42.3V.06l18.57,32.17L246.69,0V42.3h-6.74V25.05l-9.99,17.26h-3.75l-9.96-17.2v17.2h-6.71Z"/><path class="cls-3" d="M275.69,1.29V7.73h-16.26v10.81h16.26v6.5h-16.26v10.81h16.26v6.45h-22.97V1.29h22.97Z"/><path class="cls-3" d="M305.22,1.29V7.73h-16.26v10.81h16.26v6.5h-16.26v10.81h16.26v6.45h-22.97V1.29h22.97Z"/><path class="cls-3" d="M321.07,28.59l-2.23,.73h-.35v12.98h-6.71V1.29h12.1c3.44,.47,6.33,1.87,8.67,4.19,2.75,2.75,4.13,6.06,4.13,9.93s-1.4,7.25-4.19,10.02c-1.89,1.89-3.09,2.91-3.57,3.05l8.94,13.83h-7.97l-8.82-13.71Zm-2.58-20.83v15.35h3.93c2.05,0,3.82-.74,5.3-2.23,1.48-1.48,2.23-3.31,2.23-5.48s-.74-3.94-2.23-5.42c-1.48-1.48-3.25-2.23-5.3-2.23h-3.93Z"/><path class="cls-3" d="M167.61,61.29v6.45h-16.26v10.81h16.26v6.5h-16.26v10.81h16.26v6.45h-22.97V61.29h22.97Z"/><path class="cls-3" d="M180.83,61.29v41.02h-6.71V61.29h6.71Z"/><path class="cls-3" d="M192.34,89.24c.04,1.58,.85,3.16,2.43,4.75s3.49,2.37,5.71,2.37,4.07-.79,5.65-2.37c.29-.29,.93-1.03,1.9-2.2l6.36,2.23c-1.25,2.09-2.36,3.6-3.34,4.54-2.89,2.93-6.42,4.39-10.58,4.39s-7.64-1.46-10.55-4.37c-2.91-2.91-4.37-6.38-4.37-10.4s1.45-7.56,4.37-10.44c2.91-2.88,6.43-4.32,10.55-4.32s7.69,1.46,10.58,4.37c2.6,2.6,3.9,6.42,3.9,11.45h-22.62Zm1.64-6.53h12.95c-1.13-1.82-3.28-2.72-6.45-2.72-2.99,0-5.16,.91-6.5,2.72Z"/><path class="cls-3" d="M239.77,92.05l6.53,2.4c-1.6,2.17-2.7,3.54-3.28,4.1-2.89,2.93-6.42,4.39-10.58,4.39s-7.64-1.46-10.55-4.37c-2.91-2.91-4.37-6.39-4.37-10.43s1.45-7.53,4.37-10.41c2.91-2.88,6.43-4.32,10.55-4.32s7.69,1.46,10.58,4.37c.59,.57,1.68,1.93,3.28,4.1l-6.56,2.4c-.92-1.11-1.48-1.78-1.67-1.99-1.56-1.54-3.44-2.31-5.62-2.31s-4.1,.79-5.68,2.37-2.37,3.52-2.37,5.8,.79,4.25,2.37,5.83,3.48,2.37,5.68,2.37,4.06-.79,5.62-2.37c.21-.21,.78-.86,1.7-1.93Z"/><path class="cls-3" d="M253.28,75.44v-9.58h6.74v9.58h4.57v6.45h-4.57v20.42h-6.74v-20.42h-4.57v-6.45h4.57Z"/><path class="cls-3" d="M282.14,80.98c-2.66,.53-4.41,1.23-5.27,2.11-1.5,1.48-2.3,3.3-2.37,5.45v13.77h-6.71v-26.86h6.71v2.7c1.33-2.11,2.71-3.23,4.13-3.37l3.52,6.21Z"/><path class="cls-3" d="M299.22,73.42c4.16,0,7.68,1.45,10.56,4.34,2.88,2.89,4.32,6.37,4.32,10.43s-1.44,7.49-4.32,10.4c-2.88,2.91-6.4,4.37-10.56,4.37s-7.64-1.46-10.55-4.37c-2.91-2.91-4.37-6.38-4.37-10.4s1.45-7.56,4.37-10.44c2.91-2.88,6.43-4.32,10.55-4.32Zm-5.7,8.95c-1.59,1.59-2.39,3.53-2.39,5.81s.79,4.22,2.37,5.8,3.49,2.37,5.71,2.37,4.07-.79,5.65-2.37,2.37-3.52,2.37-5.8-.79-4.22-2.37-5.81-3.47-2.39-5.65-2.39-4.11,.8-5.7,2.39Z"/><path class="cls-3" d="M345.83,81.88c-2.93-.98-5.32-2.39-7.18-4.25-1.86-1.86-2.78-4.15-2.78-6.88s.98-5.02,2.93-6.97c1.95-1.95,4.35-2.93,7.18-2.93s5.19,.99,7.18,2.96c1.09,1.05,2.07,2.89,2.93,5.51l-6.12,2.37c-.7-1.91-1.25-3.07-1.64-3.46-.66-.64-1.45-.97-2.34-.97s-1.68,.33-2.34,1c-.66,.66-1,1.49-1,2.49s.32,1.83,.97,2.49c.88,.86,2.06,1.63,3.54,2.31,3.2,1.04,5.94,2.69,8.2,4.95,2.52,2.54,3.78,5.6,3.78,9.17s-1.27,6.65-3.82,9.21-5.66,3.85-9.33,3.85-6.79-1.31-9.35-3.93c-2.07-2.01-3.38-4.95-3.93-8.82l6.5-2.34c.37,3.4,1.11,5.64,2.23,6.74,1.27,1.27,2.78,1.9,4.54,1.9s3.31-.64,4.6-1.92,1.93-2.85,1.93-4.7-.63-3.39-1.9-4.66c-1.35-1.35-2.94-2.39-4.78-3.13Z"/><path class="cls-3" d="M371.23,110.86h-7.41l6.94-14.91-9.55-20.51h7.41l5.86,12.45,5.89-12.45h7.38l-16.52,35.42Z"/><path class="cls-3" d="M397.86,89.88c-1.88-1.02-3.21-1.92-4.01-2.72-1.52-1.5-2.29-3.29-2.29-5.36s.75-3.86,2.24-5.36,3.33-2.26,5.49-2.26,3.94,.72,5.39,2.17c1.37,1.39,2.05,2.98,2.05,4.78v1.55l-6.24-.03c-.22-.98-.41-1.55-.59-1.73s-.38-.26-.62-.26c-.25,0-.49,.11-.7,.32-.22,.21-.32,.49-.32,.82s.13,.62,.38,.85c.25,.29,.89,.76,1.9,1.41,2.11,1.13,3.66,2.2,4.66,3.19,1.7,1.74,2.55,3.79,2.55,6.15s-.86,4.57-2.59,6.31-3.85,2.62-6.37,2.62-4.65-.87-6.39-2.62c-1.74-1.75-2.61-4.24-2.61-7.49l6.68-1.73c0,2.68,.23,4.24,.7,4.7s1.01,.69,1.61,.69,1.12-.23,1.6-.69c.48-.46,.72-1.06,.72-1.8,0-.66-.25-1.23-.73-1.7-.37-.37-1.21-.98-2.52-1.82Z"/><path class="cls-3" d="M415.47,75.44v-9.58h6.74v9.58h4.57v6.45h-4.57v20.42h-6.74v-20.42h-4.57v-6.45h4.57Z"/><path class="cls-3" d="M436,89.24c.04,1.58,.85,3.16,2.43,4.75s3.49,2.37,5.71,2.37,4.07-.79,5.65-2.37c.29-.29,.93-1.03,1.9-2.2l6.36,2.23c-1.25,2.09-2.36,3.6-3.34,4.54-2.89,2.93-6.42,4.39-10.58,4.39s-7.64-1.46-10.55-4.37-4.37-6.38-4.37-10.4,1.46-7.56,4.37-10.44,6.43-4.32,10.55-4.32,7.69,1.46,10.58,4.37c2.6,2.6,3.9,6.42,3.9,11.45h-22.62Zm1.64-6.53h12.95c-1.13-1.82-3.28-2.72-6.45-2.72-2.99,0-5.16,.91-6.5,2.72Z"/><path class="cls-3" d="M462.58,75.44h5.04c1.17-.88,2.49-1.32,3.96-1.32,2.52,0,4.39,.62,5.62,1.88,1.27-1.25,3.15-1.88,5.65-1.88s4.69,.88,6.45,2.64c1.6,1.66,2.45,3.64,2.55,5.95v19.6h-6.74l-.03-20.57c-.86-.78-1.6-1.17-2.23-1.17s-1.14,.23-1.61,.69-.7,1.07-.7,1.83v19.22h-6.68v-19.77c-.02-.41-.25-.84-.7-1.29-.47-.45-1-.67-1.58-.67s-1.14,.23-1.61,.7c-.39,.39-.62,.86-.67,1.41v19.63h-6.71v-26.86Z"/><path class="cls-3" d="M504.41,89.88c-1.88-1.02-3.21-1.92-4.01-2.72-1.52-1.5-2.29-3.29-2.29-5.36s.75-3.86,2.24-5.36,3.33-2.26,5.49-2.26,3.95,.72,5.39,2.17c1.37,1.39,2.05,2.98,2.05,4.78v1.55l-6.24-.03c-.21-.98-.41-1.55-.59-1.73s-.38-.26-.62-.26c-.25,0-.49,.11-.7,.32s-.32,.49-.32,.82,.13,.62,.38,.85c.25,.29,.89,.76,1.9,1.41,2.11,1.13,3.66,2.2,4.66,3.19,1.7,1.74,2.55,3.79,2.55,6.15s-.86,4.57-2.59,6.31-3.85,2.62-6.37,2.62-4.65-.87-6.39-2.62-2.61-4.24-2.61-7.49l6.68-1.73c0,2.68,.23,4.24,.7,4.7s1.01,.69,1.61,.69,1.12-.23,1.6-.69,.72-1.06,.72-1.8c0-.66-.24-1.23-.73-1.7-.37-.37-1.21-.98-2.52-1.82Z"/><path class="cls-3" d="M151.35,149.62v12.69h-6.71v-41.02h12.1c3.44,.47,6.33,1.87,8.67,4.19,2.75,2.75,4.13,6.06,4.13,9.93s-1.39,7.25-4.17,10.03-6.15,4.17-10.09,4.17h-3.93Zm0-21.86v15.35h3.93c2.05,0,3.82-.74,5.3-2.23,1.48-1.48,2.23-3.31,2.23-5.48s-.74-3.94-2.23-5.42c-1.48-1.48-3.25-2.23-5.3-2.23h-3.93Z"/><path class="cls-3" d="M180.68,135.44l5.77,12.48,5.8-12.48h7.47l-13.27,27.71-13.21-27.71h7.44Z"/><path class="cls-3" d="M206.99,135.44v-9.58h6.74v9.58h4.57v6.45h-4.57v20.42h-6.74v-20.42h-4.57v-6.45h4.57Z"/><path class="cls-3" d="M228.36,155.39c.85,.84,1.27,1.83,1.27,2.96s-.42,2.18-1.27,3.02-1.88,1.26-3.09,1.26-2.28-.42-3.13-1.26c-.86-.84-1.29-1.85-1.29-3.02s.43-2.12,1.29-2.96c.86-.84,1.9-1.26,3.13-1.26s2.24,.42,3.09,1.26Z"/><path class="cls-3" d="M249.41,162.3v-41.02h6.71v34.57h14v6.45h-20.71Z"/><path class="cls-3" d="M277.16,135.44v-9.58h6.74v9.58h4.57v6.45h-4.57v20.42h-6.74v-20.42h-4.57v-6.45h4.57Z"/><path class="cls-3" d="M321.39,162.3h-6.71v-1c-3.07,1.09-5.69,1.64-7.88,1.64-4.14,0-7.66-1.46-10.55-4.37-2.89-2.91-4.34-6.38-4.34-10.4s1.45-7.56,4.34-10.44c2.89-2.88,6.41-4.32,10.55-4.32,2.19,0,4.81,.65,7.88,1.96v-14.09h6.71v41.02Zm-8.94-19.95c-1.56-1.58-3.45-2.37-5.65-2.37s-4.1,.8-5.68,2.39-2.37,3.53-2.37,5.82,.79,4.22,2.37,5.8,3.48,2.37,5.68,2.37,4.09-.79,5.65-2.37c1.19-1.17,1.93-2.45,2.23-3.84v-3.9c-.29-1.43-1.04-2.72-2.23-3.9Z"/><path class="cls-3" d="M332.81,155.39c.85,.84,1.27,1.83,1.27,2.96s-.42,2.18-1.27,3.02-1.88,1.26-3.09,1.26-2.28-.42-3.13-1.26c-.86-.84-1.29-1.85-1.29-3.02s.43-2.12,1.29-2.96c.86-.84,1.9-1.26,3.13-1.26s2.24,.42,3.09,1.26Z"/></g><g><g><path class="cls-4" d="M40.01,99.97l-17.43-31.42c-6.3-11.35-12.32-35.79-3.16-40.87-5.92,3.28-10.58,7.95-13.83,13.37h0c-1.24,2.07-2.27,4.24-3.09,6.49l-.02,.05c-.8,2.21-1.39,4.5-1.76,6.82-.01,.07-.02,.14-.03,.22-.24,1.52-.38,3.06-.43,4.61,0,.09,0,.17,0,.26-.01,.67-.01,1.33,0,2,0,.14,0,.28,.01,.42,.06,1.5,.22,3,.47,4.5,.03,.16,.06,.32,.09,.49,.11,.58,.22,1.17,.36,1.75,.04,.19,.09,.38,.13,.57,.18,.71,.37,1.42,.58,2.12,0,.02,0,.03,.01,.05,.22,.72,.48,1.43,.75,2.14,.08,.2,.16,.39,.24,.59,.21,.53,.44,1.05,.67,1.57,.09,.2,.18,.41,.28,.61,.33,.69,.67,1.38,1.05,2.06l17.43,31.42,4.9,8.84,3.06-1.7h0l5.77-3.2c4.88-2.71,6.64-8.86,3.93-13.74Z"/><path class="cls-1" d="M19.43,27.68L50.84,10.26l8.84-4.9,4.9,8.84c2.71,4.88,.95,11.03-3.93,13.74l-31.41,17.43c-8.23,4.56-11.21,14.97-6.64,23.2-6.3-11.35-12.32-35.79-3.16-40.87Z"/><path class="cls-2" d="M64.58,14.19l-4.9-8.84-8.84,4.9L19.43,27.68c-4.39,2.43-5.29,9.3-4.35,17.05h0c.19,1.54,.44,3.1,.76,4.67h0c.11,.52,.22,1.05,.34,1.57h0c.12,.53,.24,1.05,.37,1.57h0c.13,.53,.26,1.05,.4,1.56v.03c.15,.51,.29,1.01,.44,1.52v.04c.16,.5,.31,1,.47,1.49v.04c.17,.49,.33,.97,.49,1.45l.02,.06c.16,.48,.33,.95,.5,1.42l.02,.04c.17,.47,.34,.94,.52,1.39v.04c.19,.46,.37,.91,.55,1.36v.02c.19,.45,.38,.89,.57,1.32v.02c.2,.43,.39,.86,.58,1.27h0c.19,.43,.39,.83,.58,1.22h0c.2,.4,.39,.78,.59,1.15h0c.1,.19,.2,.39,.31,.57-.18-.33-.33-.66-.49-.99-.14-.3-.28-.61-.41-.91-.09-.22-.16-.43-.24-.65-.11-.31-.22-.62-.31-.94-.06-.22-.12-.44-.17-.66-.08-.32-.16-.64-.22-.96-.04-.22-.07-.44-.1-.67-.05-.32-.09-.64-.12-.96-.02-.23-.03-.45-.04-.68-.02-.32-.03-.63-.03-.95,0-.23,.02-.46,.03-.68,.01-.31,.03-.62,.06-.93,.02-.23,.06-.46,.09-.69,.04-.3,.08-.6,.14-.9,.05-.24,.11-.47,.17-.7,.07-.29,.14-.58,.22-.86,.07-.24,.16-.47,.24-.71,.09-.27,.18-.55,.29-.82,.1-.24,.21-.47,.32-.71,.12-.25,.23-.51,.36-.76,.12-.24,.27-.47,.4-.7,.14-.23,.26-.47,.41-.7,.15-.24,.32-.46,.49-.69,.15-.21,.3-.43,.46-.64,.18-.23,.39-.45,.59-.68,.17-.19,.32-.38,.49-.56,.22-.23,.47-.45,.71-.67,.17-.16,.33-.32,.51-.47,.28-.24,.58-.46,.88-.68,.16-.12,.3-.24,.46-.35,.47-.32,.96-.63,1.46-.91l31.41-17.43c4.88-2.71,6.64-8.86,3.93-13.74Z"/></g><g><path class="cls-4" d="M78.04,136.59c.11-.12,.22-.24,.33-.36,1-1.14,1.93-2.33,2.78-3.57,.08-.11,.15-.23,.23-.35,.37-.56,.73-1.12,1.07-1.7,.04-.07,.09-.15,.13-.22,.78-1.34,1.48-2.72,2.08-4.14,.03-.06,.05-.13,.08-.19,.92-2.17,1.63-4.43,2.12-6.73v-.05c1.82-8.49,.7-17.64-3.83-25.81,5.08,9.16-12.97,26.71-24.32,33l-31.41,17.43c-4.88,2.71-6.64,8.86-3.93,13.74l3.2,5.77h0l1.7,3.06,8.84-4.9,31.42-17.43c.68-.38,1.33-.78,1.98-1.19,.19-.12,.37-.24,.56-.37,.48-.32,.95-.64,1.4-.98,.17-.13,.34-.25,.51-.38,.6-.46,1.2-.93,1.77-1.42l.03-.03c.56-.48,1.1-.98,1.62-1.49,.14-.14,.27-.27,.41-.41,.42-.42,.83-.85,1.23-1.29Z"/><path class="cls-5" d="M83.03,93.47l-17.43-31.42-4.9-8.84-8.84,4.9c-4.88,2.71-6.64,8.86-3.93,13.74l17.43,31.42c4.57,8.23,1.58,18.64-6.64,23.2,11.35-6.3,29.4-23.84,24.32-33Z"/><path class="cls-2" d="M77.7,110.23c4.9-6.07,7.77-12.38,5.33-16.77l-17.43-31.42-4.9-8.84-8.84,4.9c-4.88,2.71-6.64,8.86-3.93,13.74l17.43,31.42c.28,.51,.53,1.03,.76,1.55,.08,.18,.13,.36,.2,.54,.14,.35,.28,.7,.39,1.05,.07,.22,.12,.45,.18,.67,.09,.31,.18,.63,.25,.94,.05,.25,.08,.49,.12,.74,.05,.3,.11,.59,.14,.89,.03,.26,.04,.52,.05,.78,.02,.28,.04,.57,.05,.85,0,.27-.01,.54-.02,.81,0,.27-.01,.54-.03,.81-.02,.28-.07,.56-.1,.84-.03,.26-.06,.51-.11,.77-.05,.28-.12,.57-.18,.85-.06,.24-.1,.49-.17,.73-.08,.29-.18,.57-.27,.85-.08,.23-.15,.46-.23,.68-.11,.29-.23,.57-.36,.85-.09,.21-.18,.43-.28,.63-.14,.28-.29,.55-.45,.83-.11,.2-.22,.4-.34,.59-.17,.27-.35,.53-.53,.8-.13,.18-.25,.37-.39,.55-.19,.26-.4,.51-.61,.75-.14,.17-.29,.34-.44,.51-.22,.24-.46,.47-.69,.7-.16,.16-.32,.31-.49,.46-.25,.22-.51,.43-.77,.64-.18,.14-.36,.28-.54,.42-.27,.2-.55,.38-.84,.56-.31,.2-.61,.4-.93,.58,1.62-.9,3.37-2.03,5.17-3.32h0c.4-.29,.8-.58,1.2-.88h0c.4-.31,.8-.62,1.2-.93h.01c.4-.32,.8-.65,1.2-.97h.02c.4-.34,.8-.68,1.2-1.02h0c.4-.35,.8-.7,1.2-1.05h.01c.4-.36,.79-.72,1.19-1.09h0c2.37-2.2,4.62-4.56,6.56-6.97h0Z"/></g></g></g></g></svg>